<?xml version='1.0' encoding='UTF-8'?>
<svg xmlns="http://www.w3.org/2000/svg" width="800" height="450" viewBox="0 0 800 450">
  <defs>
    <style>
      text { font-family: 'Courier New', monospace; font-size: 12px; }
    </style>
  </defs>

  <rect width="800" height="450" rx="12" fill="#0d1117"/>
  <rect width="800" height="450" rx="12" fill="none" stroke="#30363d" stroke-width="1"/>

  <rect width="800" height="36" rx="12" fill="#161b22"/>
  <rect y="24" width="800" height="12" fill="#161b22"/>
  <line x1="0" y1="36" x2="800" y2="36" stroke="#30363d" stroke-width="1"/>
  <circle cx="20" cy="18" r="6" fill="#ff5f57"/>
  <circle cx="40" cy="18" r="6" fill="#febc2e"/>
  <circle cx="60" cy="18" r="6" fill="#28c840"/>
  <text x="400" y="23" text-anchor="middle" fill="#8b949e">~/kilinel/profile.svg</text>

  <line x1="390" y1="46" x2="390" y2="438" stroke="#30363d" stroke-width="1"/>

  <!-- LEFT -->
  <text x="24" y="72" fill="#58a6ff" font-weight="700">-- [ whoami ]</text>
  <text x="24" y="94" fill="#e6edf3">  nick     &gt; <tspan fill="#f0f6fc" font-weight="700">kilinel</tspan></text>
  <text x="24" y="112" fill="#e6edf3">  os       &gt; W11 // iPhone OS</text>
  <text x="24" y="130" fill="#e6edf3">  ide      &gt; VS Code</text>

  <text x="24" y="154" fill="#58a6ff" font-weight="700">-- [ uptime ]</text>
  <text x="24" y="174" fill="#e6edf3">  age      &gt; <tspan id="uptime_data" fill="#f0f6fc">20 years, 5 months, 10 days</tspan></text>

  <text x="24" y="198" fill="#58a6ff" font-weight="700">-- [ coding ]</text>
  <text x="24" y="216" fill="#8b949e">  // experienced</text>
  <text x="24" y="234" fill="#e6edf3">  &gt; Lua          [*****]</text>
  <text x="24" y="252" fill="#e6edf3">  &gt; PHP          [****.]</text>
  <text x="24" y="270" fill="#e6edf3">  &gt; HTML + CSS   [****.]</text>
  <text x="24" y="290" fill="#8b949e">  // learning</text>
  <text x="24" y="308" fill="#e6edf3">  &gt; Laravel      [***..]</text>
  <text x="24" y="326" fill="#e6edf3">  &gt; TypeScript   [**...]</text>
  <text x="24" y="344" fill="#e6edf3">  &gt; Python       [**...]</text>
  <text x="24" y="362" fill="#e6edf3">  &gt; JavaScript   [**...]</text>

  <text x="24" y="386" fill="#58a6ff" font-weight="700">-- [ hobbies ]</text>
  <text x="24" y="406" fill="#e6edf3">  &gt; anime e series // gamedev</text>

  <!-- RIGHT -->
  <text x="406" y="72" fill="#58a6ff" font-weight="700">-- [ git status ]</text>
  <text x="406" y="94" fill="#e6edf3">  commits  &gt; <tspan id="commit_data" fill="#f0f6fc" font-weight="700">27</tspan></text>
  <text x="406" y="112" fill="#e6edf3">  repos    &gt; <tspan id="repo_data" fill="#f0f6fc" font-weight="700">16</tspan></text>
  <text x="406" y="130" fill="#e6edf3">  stars    &gt; <tspan id="star_data" fill="#f0f6fc" font-weight="700">0</tspan></text>

  <text x="406" y="158" fill="#58a6ff" font-weight="700">-- [ languages ]</text>
  <text x="406" y="178" fill="#e6edf3">  &gt; PT-BR  [*****]  native</text>
  <text x="406" y="196" fill="#e6edf3">  &gt; EN     [***..] learning</text>
  <text x="406" y="214" fill="#e6edf3">  &gt; FR     [**...] learning</text>

  <text x="406" y="242" fill="#58a6ff" font-weight="700">-- [ contacts ]</text>
  <text x="406" y="262" fill="#e6edf3">  &gt; linkedin  <tspan fill="#58a6ff">franklin-bruno-59bb3128b</tspan></text>
  <text x="406" y="280" fill="#e6edf3">  &gt; discord   <tspan fill="#58a6ff">kilworl#9997</tspan></text>

  <text x="406" y="308" fill="#58a6ff" font-weight="700">-- [ currently ]</text>
  <text x="406" y="328" fill="#e6edf3">  &gt; trabalhando com PHP e HTML</text>
  <text x="406" y="346" fill="#e6edf3">  &gt; fazendo jogos nas horas livres</text>
  <text x="406" y="364" fill="#e6edf3">  &gt; Aprendendo TypeScript, Python e Javascript</text>


</svg>